<svg aria-hidden="true" style="position: absolute; width: 0; height: 0; overflow: hidden;" version="1.1" xmlns="http://www.w3.org/2000/svg" xmlns:xlink="http://www.w3.org/1999/xlink">
<defs>
<symbol id="icon-envelope" viewBox="0 0 45 32">
<path  d="M40.6 0h-36.4c-2.316 0-4.2 1.795-4.2 4.001v24.007c0 2.206 1.884 4.001 4.2 4.001h36.4c2.316 0 4.2-1.795 4.2-4.001v-24.007c0-2.206-1.884-4.001-4.2-4.001zM40.6 2.667c0.19 0 0.371 0.038 0.537 0.103l-18.737 15.471-18.737-15.471c0.165-0.066 0.346-0.103 0.537-0.103h36.4zM40.6 29.342h-36.4c-0.772 0-1.4-0.598-1.4-1.334v-22.42l18.683 15.425c0.264 0.217 0.591 0.326 0.917 0.326s0.654-0.108 0.917-0.326l18.683-15.425v22.42c0 0.736-0.628 1.334-1.4 1.334z"></path>
</symbol>
<symbol id="icon-smartphone" viewBox="0 0 23 32">
<path  d="M19.429 0h-16c-1.891 0-3.429 1.346-3.429 3.001v26.008c0 1.655 1.538 3.001 3.429 3.001h16c1.891 0 3.429-1.346 3.429-3.001v-26.008c0-1.655-1.538-3.001-3.429-3.001zM3.429 2.001h16c0.631 0 1.143 0.448 1.143 1v21.006h-18.286v-21.006c0-0.552 0.512-1 1.143-1zM19.429 30.009h-16c-0.631 0-1.143-0.448-1.143-1v-3.001h18.286v3.001c0 0.552-0.512 1-1.143 1z"></path>
<path  d="M5.38 27.302c0.446 0.391 0.446 1.024 0 1.415s-1.17 0.391-1.616 0c-0.446-0.391-0.446-1.024 0-1.415s1.17-0.391 1.616 0z"></path>
</symbol>
</defs>
</svg>
